<mxfile host="app.diagrams.net" modified="2021-11-09T00:40:35.740Z" agent="5.0 (Windows NT 10.0; Win64; x64) AppleWebKit/537.36 (KHTML, like Gecko) Chrome/95.0.4638.69 Safari/537.36" etag="c-dFB6W__k7PtAUJz2Gg" version="15.7.0" type="github">
  <diagram id="prtHgNgQTEPvFCAcTncT" name="Page-1">
    <mxGraphModel dx="1335" dy="800" grid="1" gridSize="10" guides="1" tooltips="1" connect="1" arrows="1" fold="1" page="1" pageScale="1" pageWidth="827" pageHeight="1169" math="0" shadow="0">
      <root>
        <mxCell id="0" />
        <mxCell id="1" parent="0" />
        <mxCell id="8VwbSVBexLTumoBQLBj--3" value="Monitorul oficial local" style="rounded=0;whiteSpace=wrap;html=1;" vertex="1" parent="1">
          <mxGeometry x="200" y="120" width="120" height="60" as="geometry" />
        </mxCell>
        <mxCell id="8VwbSVBexLTumoBQLBj--30" style="edgeStyle=orthogonalEdgeStyle;rounded=0;orthogonalLoop=1;jettySize=auto;html=1;exitX=1;exitY=0.5;exitDx=0;exitDy=0;entryX=0;entryY=0.5;entryDx=0;entryDy=0;" edge="1" parent="1" source="8VwbSVBexLTumoBQLBj--4" target="8VwbSVBexLTumoBQLBj--24">
          <mxGeometry relative="1" as="geometry" />
        </mxCell>
        <mxCell id="8VwbSVBexLTumoBQLBj--4" value="Despre comuna" style="rounded=0;whiteSpace=wrap;html=1;" vertex="1" parent="1">
          <mxGeometry x="200" y="220" width="120" height="60" as="geometry" />
        </mxCell>
        <mxCell id="8VwbSVBexLTumoBQLBj--37" style="edgeStyle=orthogonalEdgeStyle;rounded=0;orthogonalLoop=1;jettySize=auto;html=1;exitX=1;exitY=0.5;exitDx=0;exitDy=0;entryX=0;entryY=0.5;entryDx=0;entryDy=0;" edge="1" parent="1" source="8VwbSVBexLTumoBQLBj--5" target="8VwbSVBexLTumoBQLBj--32">
          <mxGeometry relative="1" as="geometry" />
        </mxCell>
        <mxCell id="8VwbSVBexLTumoBQLBj--5" value="Primaria" style="rounded=0;whiteSpace=wrap;html=1;" vertex="1" parent="1">
          <mxGeometry x="200" y="320" width="120" height="60" as="geometry" />
        </mxCell>
        <mxCell id="8VwbSVBexLTumoBQLBj--54" style="edgeStyle=orthogonalEdgeStyle;rounded=0;orthogonalLoop=1;jettySize=auto;html=1;exitX=1;exitY=0.5;exitDx=0;exitDy=0;entryX=0;entryY=0.5;entryDx=0;entryDy=0;" edge="1" parent="1" source="8VwbSVBexLTumoBQLBj--6" target="8VwbSVBexLTumoBQLBj--49">
          <mxGeometry relative="1" as="geometry" />
        </mxCell>
        <mxCell id="8VwbSVBexLTumoBQLBj--6" value="Consiliul local" style="rounded=0;whiteSpace=wrap;html=1;" vertex="1" parent="1">
          <mxGeometry x="200" y="520" width="120" height="60" as="geometry" />
        </mxCell>
        <mxCell id="8VwbSVBexLTumoBQLBj--47" style="edgeStyle=orthogonalEdgeStyle;rounded=0;orthogonalLoop=1;jettySize=auto;html=1;exitX=1;exitY=0.5;exitDx=0;exitDy=0;" edge="1" parent="1" source="8VwbSVBexLTumoBQLBj--7" target="8VwbSVBexLTumoBQLBj--42">
          <mxGeometry relative="1" as="geometry" />
        </mxCell>
        <mxCell id="8VwbSVBexLTumoBQLBj--7" value="Primar" style="rounded=0;whiteSpace=wrap;html=1;" vertex="1" parent="1">
          <mxGeometry x="200" y="420" width="120" height="60" as="geometry" />
        </mxCell>
        <mxCell id="8VwbSVBexLTumoBQLBj--65" style="edgeStyle=orthogonalEdgeStyle;rounded=0;orthogonalLoop=1;jettySize=auto;html=1;exitX=1;exitY=0.5;exitDx=0;exitDy=0;entryX=0;entryY=0.5;entryDx=0;entryDy=0;" edge="1" parent="1" source="8VwbSVBexLTumoBQLBj--8" target="8VwbSVBexLTumoBQLBj--56">
          <mxGeometry relative="1" as="geometry" />
        </mxCell>
        <mxCell id="8VwbSVBexLTumoBQLBj--8" value="Informatii publice" style="rounded=0;whiteSpace=wrap;html=1;" vertex="1" parent="1">
          <mxGeometry x="200" y="620" width="120" height="60" as="geometry" />
        </mxCell>
        <mxCell id="8VwbSVBexLTumoBQLBj--73" style="edgeStyle=orthogonalEdgeStyle;rounded=0;orthogonalLoop=1;jettySize=auto;html=1;exitX=1;exitY=0.5;exitDx=0;exitDy=0;entryX=0;entryY=0.5;entryDx=0;entryDy=0;" edge="1" parent="1" source="8VwbSVBexLTumoBQLBj--9" target="8VwbSVBexLTumoBQLBj--69">
          <mxGeometry relative="1" as="geometry" />
        </mxCell>
        <mxCell id="8VwbSVBexLTumoBQLBj--9" value="Activitati sportive" style="rounded=0;whiteSpace=wrap;html=1;" vertex="1" parent="1">
          <mxGeometry x="200" y="720" width="120" height="60" as="geometry" />
        </mxCell>
        <mxCell id="8VwbSVBexLTumoBQLBj--10" value="Contact" style="rounded=0;whiteSpace=wrap;html=1;" vertex="1" parent="1">
          <mxGeometry x="200" y="820" width="120" height="60" as="geometry" />
        </mxCell>
        <mxCell id="8VwbSVBexLTumoBQLBj--15" style="edgeStyle=orthogonalEdgeStyle;rounded=0;orthogonalLoop=1;jettySize=auto;html=1;exitX=1;exitY=0.5;exitDx=0;exitDy=0;entryX=0;entryY=0.5;entryDx=0;entryDy=0;" edge="1" parent="1" source="8VwbSVBexLTumoBQLBj--12" target="8VwbSVBexLTumoBQLBj--3">
          <mxGeometry relative="1" as="geometry" />
        </mxCell>
        <mxCell id="8VwbSVBexLTumoBQLBj--17" style="edgeStyle=orthogonalEdgeStyle;rounded=0;orthogonalLoop=1;jettySize=auto;html=1;exitX=1;exitY=0.5;exitDx=0;exitDy=0;entryX=0;entryY=0.5;entryDx=0;entryDy=0;" edge="1" parent="1" source="8VwbSVBexLTumoBQLBj--12" target="8VwbSVBexLTumoBQLBj--4">
          <mxGeometry relative="1" as="geometry" />
        </mxCell>
        <mxCell id="8VwbSVBexLTumoBQLBj--18" style="edgeStyle=orthogonalEdgeStyle;rounded=0;orthogonalLoop=1;jettySize=auto;html=1;exitX=1;exitY=0.5;exitDx=0;exitDy=0;" edge="1" parent="1" source="8VwbSVBexLTumoBQLBj--12" target="8VwbSVBexLTumoBQLBj--5">
          <mxGeometry relative="1" as="geometry" />
        </mxCell>
        <mxCell id="8VwbSVBexLTumoBQLBj--19" style="edgeStyle=orthogonalEdgeStyle;rounded=0;orthogonalLoop=1;jettySize=auto;html=1;exitX=1;exitY=0.5;exitDx=0;exitDy=0;entryX=0;entryY=0.5;entryDx=0;entryDy=0;" edge="1" parent="1" source="8VwbSVBexLTumoBQLBj--12" target="8VwbSVBexLTumoBQLBj--7">
          <mxGeometry relative="1" as="geometry" />
        </mxCell>
        <mxCell id="8VwbSVBexLTumoBQLBj--20" style="edgeStyle=orthogonalEdgeStyle;rounded=0;orthogonalLoop=1;jettySize=auto;html=1;exitX=1;exitY=0.5;exitDx=0;exitDy=0;entryX=0;entryY=0.5;entryDx=0;entryDy=0;" edge="1" parent="1" source="8VwbSVBexLTumoBQLBj--12" target="8VwbSVBexLTumoBQLBj--6">
          <mxGeometry relative="1" as="geometry" />
        </mxCell>
        <mxCell id="8VwbSVBexLTumoBQLBj--21" style="edgeStyle=orthogonalEdgeStyle;rounded=0;orthogonalLoop=1;jettySize=auto;html=1;exitX=1;exitY=0.5;exitDx=0;exitDy=0;entryX=0;entryY=0.5;entryDx=0;entryDy=0;" edge="1" parent="1" source="8VwbSVBexLTumoBQLBj--12" target="8VwbSVBexLTumoBQLBj--8">
          <mxGeometry relative="1" as="geometry" />
        </mxCell>
        <mxCell id="8VwbSVBexLTumoBQLBj--22" style="edgeStyle=orthogonalEdgeStyle;rounded=0;orthogonalLoop=1;jettySize=auto;html=1;exitX=1;exitY=0.5;exitDx=0;exitDy=0;entryX=0;entryY=0.5;entryDx=0;entryDy=0;" edge="1" parent="1" source="8VwbSVBexLTumoBQLBj--12" target="8VwbSVBexLTumoBQLBj--9">
          <mxGeometry relative="1" as="geometry" />
        </mxCell>
        <mxCell id="8VwbSVBexLTumoBQLBj--23" style="edgeStyle=orthogonalEdgeStyle;rounded=0;orthogonalLoop=1;jettySize=auto;html=1;exitX=1;exitY=0.5;exitDx=0;exitDy=0;entryX=0;entryY=0.5;entryDx=0;entryDy=0;" edge="1" parent="1" source="8VwbSVBexLTumoBQLBj--12" target="8VwbSVBexLTumoBQLBj--10">
          <mxGeometry relative="1" as="geometry" />
        </mxCell>
        <mxCell id="8VwbSVBexLTumoBQLBj--68" style="edgeStyle=orthogonalEdgeStyle;rounded=0;orthogonalLoop=1;jettySize=auto;html=1;exitX=1;exitY=0.5;exitDx=0;exitDy=0;entryX=0;entryY=0.5;entryDx=0;entryDy=0;" edge="1" parent="1" source="8VwbSVBexLTumoBQLBj--12" target="8VwbSVBexLTumoBQLBj--67">
          <mxGeometry relative="1" as="geometry" />
        </mxCell>
        <mxCell id="8VwbSVBexLTumoBQLBj--12" value="Home" style="ellipse;whiteSpace=wrap;html=1;" vertex="1" parent="1">
          <mxGeometry x="30" y="360" width="120" height="80" as="geometry" />
        </mxCell>
        <mxCell id="8VwbSVBexLTumoBQLBj--24" value="Prezentare" style="shape=step;perimeter=stepPerimeter;whiteSpace=wrap;html=1;fixedSize=1;" vertex="1" parent="1">
          <mxGeometry x="360" y="220" width="120" height="60" as="geometry" />
        </mxCell>
        <mxCell id="8VwbSVBexLTumoBQLBj--25" value="Context istoric" style="shape=step;perimeter=stepPerimeter;whiteSpace=wrap;html=1;fixedSize=1;" vertex="1" parent="1">
          <mxGeometry x="460" y="220" width="120" height="60" as="geometry" />
        </mxCell>
        <mxCell id="8VwbSVBexLTumoBQLBj--26" value="Eroii comunei" style="shape=step;perimeter=stepPerimeter;whiteSpace=wrap;html=1;fixedSize=1;" vertex="1" parent="1">
          <mxGeometry x="560" y="220" width="120" height="60" as="geometry" />
        </mxCell>
        <mxCell id="8VwbSVBexLTumoBQLBj--27" value="Institutii&lt;br&gt;" style="shape=step;perimeter=stepPerimeter;whiteSpace=wrap;html=1;fixedSize=1;" vertex="1" parent="1">
          <mxGeometry x="660" y="220" width="120" height="60" as="geometry" />
        </mxCell>
        <mxCell id="8VwbSVBexLTumoBQLBj--28" value="Adrese utile" style="shape=step;perimeter=stepPerimeter;whiteSpace=wrap;html=1;fixedSize=1;" vertex="1" parent="1">
          <mxGeometry x="760" y="220" width="120" height="60" as="geometry" />
        </mxCell>
        <mxCell id="8VwbSVBexLTumoBQLBj--29" value="Galerie foto" style="shape=step;perimeter=stepPerimeter;whiteSpace=wrap;html=1;fixedSize=1;" vertex="1" parent="1">
          <mxGeometry x="860" y="220" width="120" height="60" as="geometry" />
        </mxCell>
        <mxCell id="8VwbSVBexLTumoBQLBj--32" value="Conducerea" style="shape=step;perimeter=stepPerimeter;whiteSpace=wrap;html=1;fixedSize=1;" vertex="1" parent="1">
          <mxGeometry x="360" y="320" width="120" height="60" as="geometry" />
        </mxCell>
        <mxCell id="8VwbSVBexLTumoBQLBj--33" value="Structura" style="shape=step;perimeter=stepPerimeter;whiteSpace=wrap;html=1;fixedSize=1;" vertex="1" parent="1">
          <mxGeometry x="460" y="320" width="120" height="60" as="geometry" />
        </mxCell>
        <mxCell id="8VwbSVBexLTumoBQLBj--34" value="Organigrama" style="shape=step;perimeter=stepPerimeter;whiteSpace=wrap;html=1;fixedSize=1;" vertex="1" parent="1">
          <mxGeometry x="560" y="320" width="120" height="60" as="geometry" />
        </mxCell>
        <mxCell id="8VwbSVBexLTumoBQLBj--35" value="Proiecte" style="shape=step;perimeter=stepPerimeter;whiteSpace=wrap;html=1;fixedSize=1;" vertex="1" parent="1">
          <mxGeometry x="660" y="320" width="120" height="60" as="geometry" />
        </mxCell>
        <mxCell id="8VwbSVBexLTumoBQLBj--36" value="Registru agricol" style="shape=step;perimeter=stepPerimeter;whiteSpace=wrap;html=1;fixedSize=1;" vertex="1" parent="1">
          <mxGeometry x="760" y="320" width="120" height="60" as="geometry" />
        </mxCell>
        <mxCell id="8VwbSVBexLTumoBQLBj--38" value="Starea civila" style="shape=step;perimeter=stepPerimeter;whiteSpace=wrap;html=1;fixedSize=1;" vertex="1" parent="1">
          <mxGeometry x="860" y="320" width="120" height="60" as="geometry" />
        </mxCell>
        <mxCell id="8VwbSVBexLTumoBQLBj--39" value="Cetateni de onoare" style="shape=step;perimeter=stepPerimeter;whiteSpace=wrap;html=1;fixedSize=1;" vertex="1" parent="1">
          <mxGeometry x="960" y="320" width="120" height="60" as="geometry" />
        </mxCell>
        <mxCell id="8VwbSVBexLTumoBQLBj--42" value="Atributii" style="shape=step;perimeter=stepPerimeter;whiteSpace=wrap;html=1;fixedSize=1;" vertex="1" parent="1">
          <mxGeometry x="360" y="420" width="120" height="60" as="geometry" />
        </mxCell>
        <mxCell id="8VwbSVBexLTumoBQLBj--43" value="Biografie" style="shape=step;perimeter=stepPerimeter;whiteSpace=wrap;html=1;fixedSize=1;" vertex="1" parent="1">
          <mxGeometry x="460" y="420" width="120" height="60" as="geometry" />
        </mxCell>
        <mxCell id="8VwbSVBexLTumoBQLBj--44" value="Curriculum &lt;br&gt;Vitae" style="shape=step;perimeter=stepPerimeter;whiteSpace=wrap;html=1;fixedSize=1;" vertex="1" parent="1">
          <mxGeometry x="560" y="420" width="120" height="60" as="geometry" />
        </mxCell>
        <mxCell id="8VwbSVBexLTumoBQLBj--45" value="Dispozitiile&lt;br&gt;&amp;nbsp;primarului&lt;br&gt;" style="shape=step;perimeter=stepPerimeter;whiteSpace=wrap;html=1;fixedSize=1;" vertex="1" parent="1">
          <mxGeometry x="660" y="420" width="120" height="60" as="geometry" />
        </mxCell>
        <mxCell id="8VwbSVBexLTumoBQLBj--46" value="Mesajul&lt;br&gt;primarului&lt;br&gt;" style="shape=step;perimeter=stepPerimeter;whiteSpace=wrap;html=1;fixedSize=1;" vertex="1" parent="1">
          <mxGeometry x="760" y="420" width="120" height="60" as="geometry" />
        </mxCell>
        <mxCell id="8VwbSVBexLTumoBQLBj--49" value="Atributii" style="shape=step;perimeter=stepPerimeter;whiteSpace=wrap;html=1;fixedSize=1;" vertex="1" parent="1">
          <mxGeometry x="360" y="520" width="120" height="60" as="geometry" />
        </mxCell>
        <mxCell id="8VwbSVBexLTumoBQLBj--50" value="Componenta" style="shape=step;perimeter=stepPerimeter;whiteSpace=wrap;html=1;fixedSize=1;" vertex="1" parent="1">
          <mxGeometry x="460" y="520" width="120" height="60" as="geometry" />
        </mxCell>
        <mxCell id="8VwbSVBexLTumoBQLBj--51" value="Hotarari" style="shape=step;perimeter=stepPerimeter;whiteSpace=wrap;html=1;fixedSize=1;" vertex="1" parent="1">
          <mxGeometry x="560" y="520" width="120" height="60" as="geometry" />
        </mxCell>
        <mxCell id="8VwbSVBexLTumoBQLBj--52" value="Declaratii &lt;br&gt;de avere" style="shape=step;perimeter=stepPerimeter;whiteSpace=wrap;html=1;fixedSize=1;" vertex="1" parent="1">
          <mxGeometry x="660" y="520" width="120" height="60" as="geometry" />
        </mxCell>
        <mxCell id="8VwbSVBexLTumoBQLBj--53" value="Declaratii &lt;br&gt;de interese" style="shape=step;perimeter=stepPerimeter;whiteSpace=wrap;html=1;fixedSize=1;" vertex="1" parent="1">
          <mxGeometry x="760" y="520" width="120" height="60" as="geometry" />
        </mxCell>
        <mxCell id="8VwbSVBexLTumoBQLBj--56" value="Formulare&amp;nbsp;&lt;br&gt;online" style="shape=step;perimeter=stepPerimeter;whiteSpace=wrap;html=1;fixedSize=1;" vertex="1" parent="1">
          <mxGeometry x="360" y="620" width="120" height="60" as="geometry" />
        </mxCell>
        <mxCell id="8VwbSVBexLTumoBQLBj--57" value="Acte necesare" style="shape=step;perimeter=stepPerimeter;whiteSpace=wrap;html=1;fixedSize=1;" vertex="1" parent="1">
          <mxGeometry x="460" y="620" width="120" height="60" as="geometry" />
        </mxCell>
        <mxCell id="8VwbSVBexLTumoBQLBj--58" value="Anunturi publice" style="shape=step;perimeter=stepPerimeter;whiteSpace=wrap;html=1;fixedSize=1;" vertex="1" parent="1">
          <mxGeometry x="560" y="620" width="120" height="60" as="geometry" />
        </mxCell>
        <mxCell id="8VwbSVBexLTumoBQLBj--59" value="Buget si&amp;nbsp;&lt;br&gt;executie&amp;nbsp;&lt;br&gt;bugetara" style="shape=step;perimeter=stepPerimeter;whiteSpace=wrap;html=1;fixedSize=1;" vertex="1" parent="1">
          <mxGeometry x="660" y="620" width="120" height="60" as="geometry" />
        </mxCell>
        <mxCell id="8VwbSVBexLTumoBQLBj--60" value="Fiscalitate" style="shape=step;perimeter=stepPerimeter;whiteSpace=wrap;html=1;fixedSize=1;" vertex="1" parent="1">
          <mxGeometry x="760" y="620" width="120" height="60" as="geometry" />
        </mxCell>
        <mxCell id="8VwbSVBexLTumoBQLBj--61" value="Stirile &lt;br&gt;Primariei" style="shape=step;perimeter=stepPerimeter;whiteSpace=wrap;html=1;fixedSize=1;" vertex="1" parent="1">
          <mxGeometry x="960" y="620" width="120" height="60" as="geometry" />
        </mxCell>
        <mxCell id="8VwbSVBexLTumoBQLBj--62" value="Angajari" style="shape=step;perimeter=stepPerimeter;whiteSpace=wrap;html=1;fixedSize=1;" vertex="1" parent="1">
          <mxGeometry x="860" y="620" width="120" height="60" as="geometry" />
        </mxCell>
        <mxCell id="8VwbSVBexLTumoBQLBj--63" value="Petitii/sesizari" style="shape=step;perimeter=stepPerimeter;whiteSpace=wrap;html=1;fixedSize=1;" vertex="1" parent="1">
          <mxGeometry x="1050" y="620" width="120" height="60" as="geometry" />
        </mxCell>
        <mxCell id="8VwbSVBexLTumoBQLBj--64" value="Taxe &lt;br&gt;si impozite" style="shape=step;perimeter=stepPerimeter;whiteSpace=wrap;html=1;fixedSize=1;" vertex="1" parent="1">
          <mxGeometry x="1150" y="620" width="120" height="60" as="geometry" />
        </mxCell>
        <mxCell id="8VwbSVBexLTumoBQLBj--67" value="Ghiseul.ro" style="rounded=0;whiteSpace=wrap;html=1;" vertex="1" parent="1">
          <mxGeometry x="200" y="920" width="120" height="60" as="geometry" />
        </mxCell>
        <mxCell id="8VwbSVBexLTumoBQLBj--69" value="A.S Avintul&lt;br&gt;Floresti" style="shape=step;perimeter=stepPerimeter;whiteSpace=wrap;html=1;fixedSize=1;" vertex="1" parent="1">
          <mxGeometry x="360" y="720" width="120" height="60" as="geometry" />
        </mxCell>
        <mxCell id="8VwbSVBexLTumoBQLBj--70" value="A.S International&lt;br&gt;Stoenesti" style="shape=step;perimeter=stepPerimeter;whiteSpace=wrap;html=1;fixedSize=1;" vertex="1" parent="1">
          <mxGeometry x="460" y="720" width="120" height="60" as="geometry" />
        </mxCell>
        <mxCell id="8VwbSVBexLTumoBQLBj--71" value="A.S Progresul&lt;br&gt;Palanca&lt;br&gt;" style="shape=step;perimeter=stepPerimeter;whiteSpace=wrap;html=1;fixedSize=1;" vertex="1" parent="1">
          <mxGeometry x="560" y="720" width="120" height="60" as="geometry" />
        </mxCell>
        <mxCell id="8VwbSVBexLTumoBQLBj--72" value="Cluburi de&lt;br&gt;columbofili" style="shape=step;perimeter=stepPerimeter;whiteSpace=wrap;html=1;fixedSize=1;" vertex="1" parent="1">
          <mxGeometry x="660" y="720" width="120" height="60" as="geometry" />
        </mxCell>
      </root>
    </mxGraphModel>
  </diagram>
</mxfile>
